<?xml version="1.0" encoding="UTF-8"?><svg xmlns="http://www.w3.org/2000/svg" xmlns:xlink="http://www.w3.org/1999/xlink" height="337.6" preserveAspectRatio="xMidYMid meet" version="1.0" viewBox="79.6 80.0 338.4 337.6" width="338.4" zoomAndPan="magnify"><g/><g fill="#FFF" id="change1_1"><path d="M85.127,192.056h70.194v225.499H85.127V192.056z M120.247,79.955c22.441,0,40.638,18.222,40.638,40.628 c0,22.429-18.197,40.647-40.638,40.647c-22.523,0-40.684-18.219-40.684-40.647C79.563,98.177,97.724,79.955,120.247,79.955" fill="inherit"/><path d="M199.324,192.056h67.222v30.82h0.954c9.349-17.743,32.24-36.425,66.357-36.425 c70.954,0,84.08,46.682,84.08,107.415v123.689h-70.064V307.919c0-26.175-0.516-59.817-36.45-59.817 c-36.496,0-42.061,28.485-42.061,57.884v111.569h-70.038V192.056z" fill="inherit"/></g></svg>