<?xml version="1.0" encoding="UTF-8"?><svg xmlns="http://www.w3.org/2000/svg" xmlns:xlink="http://www.w3.org/1999/xlink" height="267.0" preserveAspectRatio="xMidYMid meet" version="1.0" viewBox="82.1 112.9 328.5 267.0" width="328.5" zoomAndPan="magnify"><g/><g id="change1_1"><path d="M410.665,144.517c-12.089,5.364-25.085,8.988-38.713,10.614c13.916-8.343,24.619-21.543,29.639-37.288 c-13.009,7.724-27.429,13.34-42.787,16.364c-12.306-13.111-29.829-21.292-49.211-21.292c-37.224,0-67.404,30.184-67.404,67.402 c0,5.293,0.597,10.425,1.74,15.354c-56.012-2.8-105.67-29.63-138.925-70.428c-5.796,9.972-9.12,21.544-9.12,33.897 c0,23.376,11.895,44.022,29.974,56.098c-11.041-0.341-21.431-3.39-30.521-8.432v0.849c0,32.652,23.238,59.898,54.061,66.092 c-5.648,1.533-11.62,2.376-17.759,2.376c-4.333,0-8.571-0.435-12.677-1.227c8.573,26.783,33.463,46.262,62.954,46.823 c-23.054,18.072-52.113,28.852-83.715,28.852c-5.432,0-10.792-0.332-16.064-0.944c29.826,19.107,65.255,30.27,103.335,30.27 c123.971,0,191.765-102.688,191.765-191.767c0-2.913-0.077-5.822-0.186-8.733C390.191,169.912,401.61,158.039,410.665,144.517z" fill="#FFF"/></g></svg>